# xmcd CD database file
#
# Track frame offsets:
#	150
#	14562
#	31120
#	49347
#	65727
#	78487
#
# Disc length: 1255 seconds
#
# Revision: 1
# Processed by: cddbd v1.5.2PL0 Copyright (c) Steve Scherf et al.
# Submitted via: CDex 1.60beta1-cs1
#
DISCID=4b04e506
DTITLE=BACK-ON - NEW WORLD
DYEAR=2006
DGENRE=JPop
TTITLE0=NEW WORLD
TTITLE1=Chain(Album Mix)
TTITLE2=RAIN
TTITLE3=ヒカリサスホウ
TTITLE4=DRIVE
TTITLE5=Make Some Noise
EXTD=YEAR: 2006
EXTT0=
EXTT1=
EXTT2=
EXTT3=
EXTT4=
EXTT5=
PLAYORDER=
